<svg width="190" height="203" viewBox="0 0 190 203" fill="none" xmlns="http://www.w3.org/2000/svg">
<path d="M108.99 106.588C116.413 101.97 118.687 92.2086 114.069 84.7853C109.451 77.362 99.6887 75.088 92.2652 79.7062C84.8416 84.3244 82.5675 94.086 87.1859 101.509C91.8043 108.932 101.566 111.206 108.99 106.588Z" fill="white"/>
<path d="M73.6389 46.6588C79.2066 43.1951 80.9121 35.874 77.4483 30.3066C73.9845 24.7391 66.6631 23.0336 61.0954 26.4973C55.5278 29.9609 53.8222 37.282 57.286 42.8495C60.7498 48.417 68.0712 50.1224 73.6389 46.6588Z" stroke="white" stroke-width="3.68164"/>
<path d="M140.646 81.8744C146.213 78.4108 147.919 71.0896 144.455 65.5222C140.991 59.9547 133.67 58.2493 128.102 61.7129C122.535 65.1765 120.829 72.4977 124.293 78.0651C127.757 83.6326 135.078 85.3381 140.646 81.8744Z" stroke="white" stroke-width="3.68164"/>
<path d="M145.344 166.132C150.912 162.669 152.618 155.348 149.154 149.78C145.69 144.213 138.369 142.507 132.801 145.971C127.233 149.435 125.528 156.756 128.992 162.323C132.455 167.891 139.777 169.596 145.344 166.132Z" stroke="white" stroke-width="3.68164"/>
<path d="M57.3233 132.59C62.891 129.126 64.5965 121.805 61.1328 116.238C57.669 110.67 50.3476 108.965 44.7799 112.428C39.2122 115.892 37.5067 123.213 40.9705 128.781C44.4342 134.348 51.7557 136.054 57.3233 132.59Z" stroke="white" stroke-width="3.68164"/>
<path opacity="0.8" d="M115.602 53.5356C119.314 51.2265 120.451 46.3458 118.142 42.6341C115.833 38.9225 110.952 37.7855 107.24 40.0946C103.528 42.4037 102.391 47.2845 104.7 50.9961C107.01 54.7077 111.891 55.8447 115.602 53.5356Z" fill="#151515" stroke="white" stroke-opacity="0.3" stroke-width="2.76123"/>
<path opacity="0.8" d="M151.142 110.66C154.854 108.351 155.991 103.47 153.682 99.7586C151.373 96.047 146.492 94.91 142.78 97.2191C139.068 99.5282 137.931 104.409 140.24 108.121C142.55 111.832 147.43 112.969 151.142 110.66Z" fill="#151515" stroke="white" stroke-opacity="0.3" stroke-width="2.76123"/>
<path opacity="0.8" d="M94.0156 146.199C97.7274 143.89 98.8644 139.009 96.5552 135.298C94.2461 131.586 89.3651 130.449 85.6533 132.758C81.9415 135.067 80.8045 139.948 83.1137 143.66C85.4229 147.371 90.3038 148.508 94.0156 146.199Z" fill="#151515" stroke="white" stroke-opacity="0.3" stroke-width="2.76123"/>
<path opacity="0.8" d="M58.476 89.0746C62.1878 86.7655 63.3248 81.8848 61.0156 78.1731C58.7065 74.4615 53.8255 73.3245 50.1137 75.6336C46.4019 77.9427 45.2649 82.8234 47.5741 86.5351C49.8833 90.2467 54.7642 91.3837 58.476 89.0746Z" fill="#151515" stroke="white" stroke-opacity="0.3" stroke-width="2.76123"/>
<path d="M92.6058 80.2957L73.3324 46.9129" stroke="white" stroke-width="3.68164"/>
<path d="M111.581 85.4695L124.672 77.9112" stroke="white" stroke-width="3.68164"/>
<path d="M108.991 104.203L132.807 145.454" stroke="white" stroke-width="3.68164"/>
<path d="M88.18 100.935L62.1495 115.963" stroke="white" stroke-width="3.68164"/>
<path opacity="0.6" d="M104.437 76.7949L108.881 57.7173" stroke="white" stroke-opacity="0.3" stroke-width="2.76123"/>
<path opacity="0.6" d="M116.98 96.9561L136.059 101.4" stroke="white" stroke-opacity="0.3" stroke-width="2.76123"/>
<path opacity="0.6" d="M96.8185 109.499L92.3741 128.577" stroke="white" stroke-opacity="0.3" stroke-width="2.76123"/>
<path opacity="0.6" d="M84.2747 89.3378L65.1964 84.8936" stroke="white" stroke-opacity="0.3" stroke-width="2.76123"/>
<path d="M69.4584 39.8205C71.3143 38.6659 71.8828 36.2255 70.7282 34.3697C69.5736 32.5139 67.1331 31.9454 65.2773 33.1C63.4214 34.2545 62.8529 36.6949 64.0074 38.5507C65.162 40.4065 67.6025 40.975 69.4584 39.8205Z" fill="white"/>
<path d="M136.468 75.325C138.324 74.1704 138.892 71.73 137.738 69.8742C136.583 68.0184 134.143 67.4499 132.287 68.6045C130.431 69.759 129.862 72.1994 131.017 74.0552C132.172 75.911 134.612 76.4795 136.468 75.325Z" fill="white"/>
<path d="M141.167 159.399C143.023 158.244 143.591 155.804 142.437 153.948C141.282 152.092 138.841 151.524 136.986 152.678C135.13 153.833 134.561 156.273 135.716 158.129C136.87 159.985 139.311 160.554 141.167 159.399Z" fill="white"/>
<path d="M53.1411 125.87C54.997 124.715 55.5655 122.275 54.411 120.419C53.2564 118.563 50.8159 117.995 48.96 119.149C47.1041 120.304 46.5356 122.744 47.6902 124.6C48.8448 126.456 51.2853 127.024 53.1411 125.87Z" fill="white"/>
</svg>
